<svg width="143" height="137" viewBox="0 0 143 137" fill="none" xmlns="http://www.w3.org/2000/svg">
<path d="M93.6094 61.196L93.6114 57.7408L90.6117 59.4634L50.7484 82.355L49.7419 82.933L49.7438 84.0924L49.8206 130.008L49.8264 133.464L52.8222 131.734L92.582 108.783L93.5821 108.206L93.5827 107.052L93.6094 61.196Z" fill="#036863" stroke="#F9FAFB" stroke-width="4"/>
<path d="M27.9705 18.8448L24.9747 17.1155L24.9689 20.5707L24.8921 66.4867L24.8902 67.646L25.8967 68.2241L65.76 91.1156L68.7597 92.8382L68.7577 89.3831L68.731 43.5267L68.7303 42.3733L67.7303 41.7961L27.9705 18.8448Z" fill="#FFC300" stroke="#F9FAFB" stroke-width="4"/>
<path d="M135.909 55.4438L138.914 53.7148L135.913 51.979L95.9408 28.8589L94.9394 28.2798L93.938 28.8589L53.9656 51.979L50.9646 53.7148L53.9695 55.4438L93.9419 78.444L94.9394 79.018L95.9369 78.444L135.909 55.4438Z" fill="#003565" stroke="#F9FAFB" stroke-width="4"/>
<path d="M73.3726 44.6131L70.3768 42.8838L70.371 46.3389L70.2942 92.2549L70.2923 93.4143L71.2988 93.9923L111.162 116.884L114.162 118.606L114.16 115.151L114.133 69.2949L114.132 68.1416L113.132 67.5643L73.3726 44.6131Z" fill="#FFC300" stroke="#F9FAFB" stroke-width="4"/>
<path d="M89.7044 82.5022L92.7828 80.765L89.7083 79.0209L49.7358 56.3454L48.749 55.7856L47.7621 56.3454L7.78967 79.0209L4.71513 80.765L7.79355 82.5022L47.766 105.06L48.749 105.615L49.7319 105.06L89.7044 82.5022Z" fill="#003565" stroke="#F9FAFB" stroke-width="4"/>
<path d="M93.3704 7.51206L93.3724 4.05691L90.3727 5.77948L50.5094 28.6711L49.5029 29.2491L49.5048 30.4085L49.5816 76.3245L49.5874 79.7796L52.5832 78.0503L92.343 55.0991L93.343 54.5218L93.3437 53.3684L93.3704 7.51206Z" fill="#036863" stroke="#F9FAFB" stroke-width="4"/>
<path d="M75.3953 44.737L72.2809 42.7744L72.2809 46.3491L72.2808 63.8428L72.2808 67.4022L75.3891 65.5637L89.7094 57.0936L92.441 55.4779L89.7156 53.7605L75.3953 44.737Z" fill="#FFC300" stroke="#F9FAFB" stroke-width="4"/>
<path d="M92.0693 57.7203L74.3407 46.3395L74.2257 68.4247L92.0693 57.7203Z" fill="#FFC300"/>
</svg>
