<svg width="39" height="61" viewBox="0 0 39 61" fill="none" xmlns="http://www.w3.org/2000/svg">
<path d="M1 20.0612L3.70139 17.4011H34.7674L37.4688 20.0612V50.2083C21.8908 67.942 6.66542 57.5974 1 50.2083V20.0612Z" fill="#0A0A0A" stroke="white" stroke-width="2"/>
<path d="M4.03906 47.5483V33.8047C8.18119 34.6914 11.1677 37.2776 12.1432 38.4598L12.9311 46.2183C13.6815 47.5483 16.0377 50.164 19.4595 49.9867C22.8813 49.8093 25.0124 46.8094 25.6502 45.3316C25.4626 40.4179 25.2 29.992 25.6502 27.5979C26.1004 25.2039 31.9909 23.4232 34.8799 22.832L33.9795 47.5483C33.0415 50.2083 28.8243 55.8609 19.4595 57.1909C10.0947 58.521 5.2772 51.3167 4.03906 47.5483Z" fill="white"/>
<path d="M32.9947 19.2919C36.4483 17.7587 36.6894 12.7158 36.3783 10.386H1.95886V15.6844C11.643 25.0413 28.6777 21.2084 32.9947 19.2919Z" fill="white"/>
<path d="M35.118 8.42348C35.118 10.1621 33.6686 12.0105 30.6959 13.4838C27.7855 14.9262 23.6948 15.847 19.1218 15.847C14.5488 15.847 10.4581 14.9262 7.5477 13.4838C4.57497 12.0105 3.12555 10.1621 3.12555 8.42348C3.12555 6.68487 4.57497 4.83648 7.5477 3.36317C10.4581 1.92077 14.5488 1 19.1218 1C23.6948 1 27.7855 1.92077 30.6959 3.36317C33.6686 4.83648 35.118 6.68487 35.118 8.42348Z" fill="#0A0A0A" stroke="white" stroke-width="2"/>
<path d="M6.96555 24.7162C6.10261 24.2729 4.44425 23.0094 4.71439 21.502" stroke="white" stroke-width="2" stroke-linecap="round"/>
<ellipse cx="15.1823" cy="32.3639" rx="2.92651" ry="2.88172" fill="white"/>
<ellipse cx="11.3553" cy="29.4822" rx="2.92651" ry="2.88172" fill="white"/>
<ellipse cx="11.3553" cy="32.3639" rx="2.92651" ry="2.88172" fill="white"/>
<ellipse cx="14.2819" cy="28.1522" rx="2.92651" ry="2.88172" fill="white"/>
<ellipse cx="7.52837" cy="31.0339" rx="2.92651" ry="2.88172" fill="white"/>
<ellipse cx="11.3553" cy="25.7137" rx="2.92651" ry="2.88172" fill="white"/>
<ellipse cx="7.97857" cy="27.0438" rx="2.92651" ry="2.88172" fill="white"/>
</svg>
