<svg width="154" height="245" viewBox="0 0 154 245" fill="none" xmlns="http://www.w3.org/2000/svg">
<path d="M5 80.135L15.6256 69.5094H137.821L148.446 80.135V200.559C87.1716 271.397 27.2843 230.075 5 200.559V80.135Z" fill="#F6F5F3" stroke="#998877" stroke-width="10"/>
<path d="M16.9539 189.933V135.034C33.2465 138.576 44.9938 148.907 48.8308 153.629L51.9299 184.621C54.8815 189.933 64.1494 200.382 77.6086 199.674C91.0677 198.965 99.4502 186.982 101.959 181.079C101.221 161.451 100.188 119.804 101.959 110.241C103.73 100.678 126.9 93.5647 138.263 91.2035L134.721 189.933C131.032 200.559 114.444 223.139 77.6086 228.451C40.773 233.764 21.8239 204.986 16.9539 189.933Z" fill="#ACB298"/>
<path d="M131.18 77.0359C144.284 71.0147 145.199 51.2097 144.019 42.0598H13.412V62.8684C50.159 99.6154 114.798 84.5624 131.18 77.0359Z" fill="#E4E0DA"/>
<path d="M140.133 33.6479C140.133 41.2014 133.976 48.8359 122.204 54.7608C110.606 60.5982 94.3738 64.2957 76.2804 64.2957C58.1869 64.2957 41.9548 60.5982 30.3569 54.7608C18.5851 48.8359 12.4274 41.2014 12.4274 33.6479C12.4274 26.0943 18.5851 18.4598 30.3569 12.535C41.9548 6.69759 58.1869 3 76.2804 3C94.3738 3 110.606 6.69759 122.204 12.535C133.976 18.4598 140.133 26.0943 140.133 33.6479Z" fill="#F6F5F3" stroke="#E4E0DA" stroke-width="6"/>
<path d="M28.4649 98.7299C25.0706 96.959 18.5477 91.9118 19.6102 85.8906" stroke="#998877" stroke-width="10" stroke-linecap="round"/>
<circle cx="60.7846" cy="129.279" r="11.5111" fill="#BFC0AA"/>
<circle cx="45.7316" cy="117.768" r="11.5111" fill="#979F7B"/>
<circle cx="45.7316" cy="129.279" r="11.5111" fill="#ACB298"/>
<circle cx="57.2427" cy="112.455" r="11.5111" fill="#ACB298"/>
<circle cx="30.6786" cy="123.966" r="11.5111" fill="#BFC0AA"/>
<circle cx="45.7316" cy="102.715" r="11.5111" fill="#979F7B"/>
<circle cx="32.4496" cy="108.027" r="11.5111" fill="#ACB298"/>
</svg>
