<svg width="270" height="247" viewBox="0 0 270 247" fill="none" xmlns="http://www.w3.org/2000/svg">
<path d="M138.002 82.5168L132.048 79.2515L132.037 85.7749L131.895 166.362L131.891 168.666L133.997 169.815L207.645 209.992L213.607 213.244L213.603 206.721L213.554 126.238L213.552 123.946L211.46 122.798L138.002 82.5168Z" fill="#998877" stroke="white" stroke-width="2.40045"/>
<path d="M174.466 110.623L174.471 104.099L168.509 107.352L94.8605 147.529L92.7545 148.678L92.7585 150.982L92.9004 231.569L92.9116 238.092L98.8658 234.827L172.323 194.545L174.415 193.398L174.417 191.106L174.466 110.623Z" fill="#BFC0AA" stroke="white" stroke-width="5"/>
<path d="M52.9519 36.0633L46.9978 32.7982L46.9863 39.3214L46.8443 119.909L46.8404 122.213L48.9467 123.362L122.595 163.539L128.557 166.791L128.552 160.268L128.503 79.7853L128.502 77.4924L126.409 76.3447L52.9519 36.0633Z" fill="#998877" stroke="white" stroke-width="5"/>
<path d="M252.209 100.883L258.534 97.424L252.217 93.9509L178.71 53.541L176.807 52.4948L174.903 53.541L101.397 93.9509L95.0795 97.424L101.405 100.883L174.911 141.084L176.807 142.121L178.703 141.084L252.209 100.883Z" fill="#ACB298" stroke="white" stroke-width="5"/>
<path d="M136.838 81.2897L130.884 78.0247L130.873 84.5481L130.731 165.135L130.726 167.439L132.833 168.588L206.481 208.765L212.443 212.018L212.439 205.494L212.389 125.011L212.388 122.719L210.295 121.571L136.838 81.2897Z" fill="#998877" stroke="white" stroke-width="5"/>
<path d="M167.008 148.621L173.333 145.162L167.015 141.689L93.5089 101.279L91.6054 100.232L89.7019 101.279L16.1954 141.689L9.87805 145.162L16.203 148.621L89.7095 188.822L91.6054 189.858L93.5013 188.822L167.008 148.621Z" fill="#ACB298" stroke="white" stroke-width="5"/>
<path d="M174.026 16.4035L174.03 9.88L168.069 13.1322L94.42 53.3092L92.314 54.4582L92.3183 56.7626L92.4602 137.349L92.4717 143.873L98.4259 140.608L171.883 100.326L173.976 99.1787L173.977 96.8859L174.026 16.4035Z" fill="#BFC0AA" stroke="white" stroke-width="5"/>
<mask id="mask0_67_55" style="mask-type:alpha" maskUnits="userSpaceOnUse" x="127" y="72" width="55" height="58">
<path d="M127.193 72.1968L181.266 100.415L127.193 129.92V72.1968Z" fill="white"/>
</mask>
<g mask="url(#mask0_67_55)">
<path d="M142.222 82.4605L136.74 79.2515L136.73 85.6626L136.599 164.86L136.595 167.125L138.534 168.254L206.339 207.739L211.828 210.935L211.824 204.524L211.779 125.429L211.777 123.175L209.851 122.048L142.222 82.4605Z" fill="#998877" stroke="white" stroke-width="5"/>
</g>
</svg>
