<svg width="76" height="68" viewBox="0 0 76 68" fill="none" xmlns="http://www.w3.org/2000/svg">
<path d="M38.8451 22.7172L37.1691 21.8182L37.166 23.6141L37.1259 45.8L37.1248 46.4345L37.7176 46.7507L58.4483 57.8116L60.1263 58.7069L60.1253 56.911L60.1114 34.7539L60.1109 34.1227L59.522 33.8068L38.8451 22.7172Z" fill="white" stroke="#1F1C1C" stroke-width="2"/>
<path d="M49.1091 30.4549L49.1103 28.6589L47.4322 29.5542L26.7015 40.6151L26.1087 40.9315L26.1098 41.5659L26.1498 63.7517L26.1529 65.5475L27.8289 64.6488L48.5058 53.559L49.0947 53.2431L49.0952 52.612L49.1091 30.4549Z" fill="white" stroke="#1F1C1C" stroke-width="2"/>
<path d="M14.905 9.92837L13.229 9.02948L13.2258 10.8253L13.1858 33.0113L13.1847 33.6457L13.7776 33.962L34.5082 45.0229L36.1863 45.9182L36.1851 44.1223L36.1712 21.9652L36.1708 21.334L35.5818 21.018L14.905 9.92837Z" fill="white" stroke="#1F1C1C" stroke-width="2"/>
<path d="M70.9923 27.7735L72.7726 26.8212L70.9943 25.865L50.3037 14.74L49.7678 14.452L49.2321 14.74L28.5414 25.865L26.7631 26.8212L28.5436 27.7735L49.2342 38.8409L49.7678 39.1264L50.3016 38.8409L70.9923 27.7735Z" fill="white" stroke="#1F1C1C" stroke-width="2"/>
<path d="M38.5174 22.3793L36.8415 21.4805L36.8383 23.2764L36.7983 45.4623L36.7971 46.0967L37.39 46.413L58.1206 57.4739L59.7986 58.3692L59.7975 56.5732L59.7836 34.4161L59.7833 33.7849L59.1943 33.469L38.5174 22.3793Z" fill="white" stroke="#1F1C1C" stroke-width="2"/>
<path d="M47.0096 40.9159L48.79 39.9636L47.0118 39.0074L26.3211 27.8824L25.7853 27.5942L25.2495 27.8824L4.55874 39.0074L2.78052 39.9636L4.56087 40.9159L25.2516 51.9833L25.7853 52.2687L26.3189 51.9833L47.0096 40.9159Z" fill="white" stroke="#1F1C1C" stroke-width="2"/>
<path d="M48.9852 4.51595L48.9863 2.72L47.3082 3.61533L26.5775 14.6762L25.9847 14.9926L25.9859 15.6269L26.0258 37.8128L26.0291 39.6087L27.7051 38.7099L48.3819 27.6202L48.9709 27.3043L48.9712 26.673L48.9852 4.51595Z" fill="white" stroke="#1F1C1C" stroke-width="2"/>
<mask id="mask0_2_23" style="mask-type:alpha" maskUnits="userSpaceOnUse" x="35" y="19" width="17" height="17">
<path d="M36.8024 34.1003V21.5091L48.8621 27.6643L36.8024 34.1003Z" fill="white" stroke="#1F1C1C" stroke-width="2"/>
</mask>
<g mask="url(#mask0_2_23)">
<path d="M40.0328 22.7017L38.4897 21.8182L38.4868 23.5832L38.45 45.3866L38.4489 46.0102L38.9946 46.321L58.0806 57.1913L59.6255 58.0711L59.6246 56.3061L59.6118 34.5309L59.6114 33.9106L59.0691 33.6002L40.0328 22.7017Z" fill="white" stroke="#1F1C1C" stroke-width="2"/>
</g>
</svg>
