<svg width="626" height="136" viewBox="0 0 626 136" fill="none" xmlns="http://www.w3.org/2000/svg">
<g clip-path="url(#clip0_3_175)">
<path d="M43.2045 44.4545H50.2045V77.4545C50.2045 80.4394 49.6136 82.9924 48.4318 85.1136C47.2652 87.2348 45.6212 88.8561 43.5 89.9773C41.3788 91.0833 38.8939 91.6364 36.0455 91.6364C33.4242 91.6364 31.0682 91.1591 28.9773 90.2045C26.9015 89.25 25.2576 87.8636 24.0455 86.0455C22.8485 84.2121 22.25 81.9848 22.25 79.3636H29.2273C29.2273 80.6515 29.5227 81.7652 30.1136 82.7045C30.7197 83.6439 31.5455 84.3788 32.5909 84.9091C33.6515 85.4242 34.8636 85.6818 36.2273 85.6818C37.7121 85.6818 38.9697 85.3712 40 84.75C41.0455 84.1136 41.8409 83.1818 42.3864 81.9545C42.9318 80.7273 43.2045 79.2273 43.2045 77.4545V44.4545ZM64.358 91H56.9034L73.6534 44.4545H81.767L98.517 91H91.0625L77.9034 52.9091H77.5398L64.358 91ZM65.608 72.7727H89.7898V78.6818H65.608V72.7727ZM105.239 44.4545H113.761L128.58 80.6364H129.125L143.943 44.4545H152.466V91H145.784V57.3182H145.352L131.625 90.9318H126.08L112.352 57.2955H111.92V91H105.239V44.4545ZM162.676 91V44.4545H169.699V64.6818H192.903V44.4545H199.949V91H192.903V70.7045H169.699V91H162.676ZM219.79 91.7727C217.578 91.7727 215.578 91.3636 213.79 90.5455C212.002 89.7121 210.585 88.5076 209.54 86.9318C208.509 85.3561 207.994 83.4242 207.994 81.1364C207.994 79.1667 208.373 77.5455 209.131 76.2727C209.888 75 210.911 73.9924 212.199 73.25C213.487 72.5076 214.926 71.947 216.517 71.5682C218.108 71.1894 219.729 70.9015 221.381 70.7045C223.472 70.4621 225.169 70.2652 226.472 70.1136C227.775 69.947 228.722 69.6818 229.312 69.3182C229.903 68.9545 230.199 68.3636 230.199 67.5455V67.3864C230.199 65.4015 229.638 63.8636 228.517 62.7727C227.411 61.6818 225.759 61.1364 223.562 61.1364C221.275 61.1364 219.472 61.6439 218.153 62.6591C216.85 63.6591 215.949 64.7727 215.449 66L209.062 64.5455C209.82 62.4242 210.926 60.7121 212.381 59.4091C213.85 58.0909 215.54 57.1364 217.449 56.5455C219.358 55.9394 221.366 55.6364 223.472 55.6364C224.866 55.6364 226.343 55.803 227.903 56.1364C229.479 56.4545 230.949 57.0455 232.312 57.9091C233.691 58.7727 234.82 60.0076 235.699 61.6136C236.578 63.2045 237.017 65.2727 237.017 67.8182V91H230.381V86.2273H230.108C229.669 87.1061 229.009 87.9697 228.131 88.8182C227.252 89.6667 226.123 90.3712 224.744 90.9318C223.366 91.4924 221.714 91.7727 219.79 91.7727ZM221.267 86.3182C223.146 86.3182 224.752 85.947 226.085 85.2045C227.434 84.4621 228.456 83.4924 229.153 82.2955C229.866 81.0833 230.222 79.7879 230.222 78.4091V73.9091C229.979 74.1515 229.509 74.3788 228.812 74.5909C228.131 74.7879 227.35 74.9621 226.472 75.1136C225.593 75.25 224.737 75.3788 223.903 75.5C223.07 75.6061 222.373 75.697 221.812 75.7727C220.494 75.9394 219.29 76.2197 218.199 76.6136C217.123 77.0076 216.259 77.5758 215.608 78.3182C214.972 79.0455 214.653 80.0152 214.653 81.2273C214.653 82.9091 215.275 84.1818 216.517 85.0455C217.759 85.8939 219.343 86.3182 221.267 86.3182ZM260.773 91.7045C257.394 91.7045 254.485 90.9394 252.045 89.4091C249.621 87.8636 247.758 85.7348 246.455 83.0227C245.152 80.3106 244.5 77.2045 244.5 73.7045C244.5 70.1591 245.167 67.0303 246.5 64.3182C247.833 61.5909 249.712 59.4621 252.136 57.9318C254.561 56.4015 257.417 55.6364 260.705 55.6364C263.356 55.6364 265.72 56.1288 267.795 57.1136C269.871 58.0833 271.545 59.447 272.818 61.2045C274.106 62.9621 274.871 65.0152 275.114 67.3636H268.5C268.136 65.7273 267.303 64.3182 266 63.1364C264.712 61.9545 262.985 61.3636 260.818 61.3636C258.924 61.3636 257.265 61.8636 255.841 62.8636C254.432 63.8485 253.333 65.2576 252.545 67.0909C251.758 68.9091 251.364 71.0606 251.364 73.5455C251.364 76.0909 251.75 78.2879 252.523 80.1364C253.295 81.9848 254.386 83.4167 255.795 84.4318C257.22 85.447 258.894 85.9545 260.818 85.9545C262.106 85.9545 263.273 85.7197 264.318 85.25C265.379 84.7652 266.265 84.0758 266.977 83.1818C267.705 82.2879 268.212 81.2121 268.5 79.9545H275.114C274.871 82.2121 274.136 84.2273 272.909 86C271.682 87.7727 270.038 89.1667 267.977 90.1818C265.932 91.197 263.53 91.7045 260.773 91.7045ZM288.631 79.1591L288.585 70.8636H289.767L303.676 56.0909H311.812L295.949 72.9091H294.881L288.631 79.1591ZM282.381 91V44.4545H289.176V91H282.381ZM304.426 91L291.926 74.4091L296.608 69.6591L312.767 91H304.426ZM344.165 64.6136L338.006 65.7045C337.748 64.9167 337.339 64.1667 336.778 63.4545C336.233 62.7424 335.491 62.1591 334.551 61.7045C333.612 61.25 332.438 61.0227 331.028 61.0227C329.104 61.0227 327.498 61.4545 326.21 62.3182C324.922 63.1667 324.278 64.2652 324.278 65.6136C324.278 66.7803 324.71 67.7197 325.574 68.4318C326.438 69.1439 327.831 69.7273 329.756 70.1818L335.301 71.4545C338.513 72.197 340.907 73.3409 342.483 74.8864C344.059 76.4318 344.847 78.4394 344.847 80.9091C344.847 83 344.241 84.8636 343.028 86.5C341.831 88.1212 340.157 89.3939 338.006 90.3182C335.869 91.2424 333.392 91.7045 330.574 91.7045C326.665 91.7045 323.475 90.8712 321.006 89.2045C318.536 87.5227 317.021 85.1364 316.46 82.0455L323.028 81.0455C323.438 82.7576 324.278 84.053 325.551 84.9318C326.824 85.7955 328.483 86.2273 330.528 86.2273C332.756 86.2273 334.536 85.7652 335.869 84.8409C337.203 83.9015 337.869 82.7576 337.869 81.4091C337.869 80.3182 337.46 79.4015 336.642 78.6591C335.839 77.9167 334.604 77.3561 332.938 76.9773L327.028 75.6818C323.771 74.9394 321.362 73.7576 319.801 72.1364C318.256 70.5152 317.483 68.4621 317.483 65.9773C317.483 63.9167 318.059 62.1136 319.21 60.5682C320.362 59.0227 321.953 57.8182 323.983 56.9545C326.013 56.0758 328.339 55.6364 330.96 55.6364C334.733 55.6364 337.703 56.4545 339.869 58.0909C342.036 59.7121 343.468 61.8864 344.165 64.6136Z" fill="white"/>
<path d="M495.521 1.90685L518.817 -15.4993L609.381 -48.0868C621.247 -51.0096 649.036 -48.5841 665.264 -15.4993C681.492 17.5855 659.462 41.9105 646.418 49.9374L556.508 95.3504H536.616L523.266 101.371C471.231 101.371 465.115 50.5918 468.561 25.2023C469.161 22.6441 470.386 19.8203 472.357 17.4544C475.393 11.256 489.065 4.50672 495.521 1.90685Z" fill="white" fill-opacity="0.72"/>
<path d="M523.266 101.371L536.615 95.3504H556.508L646.418 49.9374C659.462 41.9105 681.492 17.5855 665.264 -15.4993C649.036 -48.5841 621.247 -51.0096 609.381 -48.0868L518.817 -15.4993L495.521 1.90685C489.065 4.50672 475.393 11.256 472.357 17.4544M523.266 101.371C530.552 85.8403 538.16 48.8642 510.31 25.2023C489.687 7.68025 477.982 10.7026 472.357 17.4544M523.266 101.371C471.231 101.371 465.115 50.5918 468.561 25.2023C469.161 22.644 470.386 19.8203 472.357 17.4544" stroke="white" stroke-width="2"/>
<path d="M493.427 73.102L492.249 68.2597C481.57 68.2597 485.008 50.1992 488.061 41.1689C481.884 38.5514 489.065 14.6888 493.427 3.08473L518.424 -14.1906L609.512 -46.5163C631.708 -54.3687 651.304 -36.6135 658.328 -26.7544C684.502 10.3089 663.039 38.595 649.036 48.1052L556.377 94.4344H536.877L522.35 100.847C522.246 108.071 527.193 113.367 529.679 115.112C529.679 117.625 534.478 123.314 536.877 125.844L538.709 130.555L540.542 134.351C542.007 144.716 533.911 143.381 529.679 141.418C521.199 144.768 515.327 144.035 513.451 143.25C509.996 147.752 501.89 146.522 498.27 145.344C495.024 147.333 490.199 147.656 488.192 147.569C478.769 149.454 469.87 148.354 466.598 147.569C458.85 152.49 451.417 144.21 448.669 139.455C441.235 136.419 440.423 131.035 440.947 128.723L436.759 125.844C436.41 126.498 434.77 127.127 431.001 124.404C427.231 121.682 435.014 112.364 439.377 108.045C435.817 98.3082 447.054 97.0954 453.118 97.7062C452.49 95.9263 456.085 91.0317 457.961 88.8068C469.268 87.2363 471.746 83.7027 471.571 82.1323H476.283L480.863 77.8134C482.748 71.6362 490.025 72.0986 493.427 73.102Z" fill="url(#paint0_linear_3_175)"/>
<path d="M518.817 -15.4993L495.521 1.90685C489.065 4.50671 475.393 11.256 472.357 17.4544C477.982 10.7026 489.687 7.68024 510.31 25.2023C538.16 48.8642 530.552 85.8403 523.266 101.371L536.616 95.3504H556.508L646.418 49.9374C659.462 41.9105 681.492 17.5855 665.264 -15.4993C649.036 -48.5841 621.247 -51.0096 609.381 -48.0868L518.817 -15.4993Z" fill="url(#paint1_radial_3_175)" stroke="white" stroke-width="3"/>
</g>
<defs>
<linearGradient id="paint0_linear_3_175" x1="438.607" y1="120.848" x2="656.655" y2="-22.6048" gradientUnits="userSpaceOnUse">
<stop stop-color="#680079"/>
<stop offset="0.0001" stop-color="#6F0082"/>
<stop offset="0.402184" stop-color="#A400CD"/>
<stop offset="1" stop-color="#A600CF"/>
</linearGradient>
<radialGradient id="paint1_radial_3_175" cx="0" cy="0" r="1" gradientUnits="userSpaceOnUse" gradientTransform="translate(588.5 18) rotate(55.2754) scale(61.4431 81.1678)">
<stop stop-color="white" stop-opacity="0.94"/>
<stop offset="1" stop-color="white" stop-opacity="0.65"/>
</radialGradient>
<clipPath id="clip0_3_175">
<rect width="626" height="136" fill="white"/>
</clipPath>
</defs>
</svg>
