<svg width="626" height="136" viewBox="0 0 626 136" fill="none" xmlns="http://www.w3.org/2000/svg">
<g clip-path="url(#clip0_3_174)">
<path d="M349.774 73.7735L332.619 83.7195L332.619 103.612L349.774 93.6656L349.774 73.7735Z" fill="#005099"/>
<path d="M332.701 83.72L264.082 43.9356L264.082 63.8277L332.701 103.612L332.701 83.72Z" fill="#006BCC"/>
<path d="M281.155 34L264 43.946L332.618 83.7304L349.773 73.7843L281.155 34Z" fill="#2182DB"/>
</g>
<g clip-path="url(#clip1_3_174)">
<path d="M580.742 85.5417L563.588 95.3333L563.588 114.917L580.742 105.125L580.742 85.5417Z" fill="#374151"/>
<path d="M563.789 95.3227L546.635 85.5311L546.635 105.114L563.789 114.906L563.789 95.3227Z" fill="#4B5563"/>
<path d="M563.707 75.7497L546.553 85.5414L563.707 95.333L580.862 85.5414L563.707 75.7497Z" fill="#6B7280"/>
<path d="M606.773 69.4733L589.619 79.2649L589.619 98.8482L606.773 89.0565L606.773 69.4733Z" fill="#374151"/>
<path d="M589.701 79.2648L521.082 40.0981L521.082 59.6814L589.701 98.848L589.701 79.2648Z" fill="#4B5563"/>
<path d="M538.155 30.3167L521 40.1084L589.618 79.275L606.773 69.4834L538.155 30.3167Z" fill="#6B7280"/>
<path d="M580.941 26.7917L563.786 36.5833L563.786 56.1666L580.941 46.3749L580.941 26.7917Z" fill="#374151"/>
<path d="M563.988 36.573L546.833 26.7814L546.833 46.3646L563.988 56.1563L563.988 36.573Z" fill="#4B5563"/>
<path d="M563.905 17L546.751 26.7916L563.905 36.5833L581.06 26.7916L563.905 17Z" fill="#6B7280"/>
</g>
<g clip-path="url(#clip2_3_174)">
<path d="M450.577 27.1193L466.262 18.0597L512.973 117.716L497.396 126.775L450.577 27.1193Z" fill="#FFC300"/>
<path d="M497.415 36.179L481.82 45.2386L497.415 54.2982L513.01 45.2386L497.415 36.179Z" fill="#FFD038"/>
<path d="M450.595 9L435 18.0596L450.595 27.1192L466.19 18.0596L450.595 9Z" fill="#FFD038"/>
<path d="M481.82 45.2384L497.415 54.2979L450.667 99.5963L435 90.5368L481.82 45.2384Z" fill="#CC9C00"/>
<path d="M466.153 90.3554L512.973 45.2386L497.397 54.2983L450.667 99.5963L466.153 90.3554Z" fill="#997500"/>
<path d="M473.986 77.038L489.563 67.7971L512.973 117.716L497.396 126.775L473.986 77.038Z" fill="#FFC300"/>
<path d="M435 18.0596L450.595 27.1193L497.396 126.775L481.82 117.716L435 18.0596Z" fill="#CC9C00"/>
</g>
<g clip-path="url(#clip3_3_174)">
<path d="M360.952 23.6134L343 33.9046L369.929 49.3415L387.881 39.0503L360.952 23.6134Z" fill="#21D9D0"/>
<path d="M387.694 9L369.741 19.2912L387.694 29.5824L405.646 19.2912L387.694 9Z" fill="#21D9D0"/>
<path d="M387.694 29.5824L369.741 19.2912L369.741 101.621L387.694 111.912L387.694 29.5824Z" fill="#05A69E"/>
<path d="M405.729 19.2913L387.776 29.5825L387.776 111.912L405.729 101.621L405.729 19.2913Z" fill="#00736E"/>
<path d="M432.677 64.7784L414.725 75.0696L414.725 95.652L432.677 85.3608L432.677 64.7784Z" fill="#00736E"/>
<path d="M414.81 75.0696L343 33.9046L343 54.4871L414.81 95.652L414.81 75.0696Z" fill="#05A69E"/>
<path d="M405.729 49.3415L387.776 59.6327L414.705 75.0695L432.657 64.7783L405.729 49.3415Z" fill="#21D9D0"/>
</g>
<path d="M45.472 89.704C41.1627 89.704 37.3227 88.8293 33.952 87.08C30.624 85.3307 28 82.856 26.08 79.656C24.2027 76.456 23.264 72.6587 23.264 68.264C23.264 63.8267 24.2027 60.008 26.08 56.808C28 53.608 30.624 51.1333 33.952 49.384C37.3227 47.6347 41.1627 46.76 45.472 46.76C49.824 46.76 53.664 47.6347 56.992 49.384C60.32 51.1333 62.944 53.608 64.864 56.808C66.784 60.008 67.744 63.8267 67.744 68.264C67.744 72.6587 66.784 76.456 64.864 79.656C62.944 82.856 60.32 85.3307 56.992 87.08C53.664 88.8293 49.824 89.704 45.472 89.704ZM45.472 84.136C48.544 84.136 51.2747 83.5387 53.664 82.344C56.0533 81.1493 57.952 79.3787 59.36 77.032C60.768 74.6853 61.472 71.7627 61.472 68.264C61.472 64.7653 60.768 61.8427 59.36 59.496C57.952 57.1493 56.0533 55.3787 53.664 54.184C51.2747 52.9467 48.544 52.328 45.472 52.328C42.4853 52.328 39.776 52.9467 37.344 54.184C34.912 55.3787 32.992 57.1493 31.584 59.496C30.176 61.8427 29.472 64.7653 29.472 68.264C29.472 71.7627 30.176 74.6853 31.584 77.032C32.992 79.3787 34.912 81.1493 37.344 82.344C39.776 83.5387 42.4853 84.136 45.472 84.136ZM115.672 74.792C115.288 77.9067 114.221 80.5733 112.472 82.792C110.765 85.0107 108.525 86.7173 105.752 87.912C102.979 89.1067 99.8213 89.704 96.28 89.704C93.08 89.704 90.136 89.2133 87.448 88.232C84.8027 87.2507 82.4987 85.8427 80.536 84.008C78.5733 82.1733 77.0373 79.9333 75.928 77.288C74.8187 74.6 74.264 71.592 74.264 68.264C74.264 64.8933 74.8187 61.8853 75.928 59.24C77.0373 56.5947 78.5733 54.3547 80.536 52.52C82.4987 50.6427 84.8027 49.2133 87.448 48.232C90.136 47.2507 93.08 46.76 96.28 46.76C99.864 46.76 103.043 47.3787 105.816 48.616C108.589 49.8107 110.829 51.5387 112.536 53.8C114.285 56.0187 115.352 58.6853 115.736 61.8H109.848C109.293 59.7947 108.376 58.088 107.096 56.68C105.816 55.272 104.259 54.2053 102.424 53.48C100.589 52.712 98.5413 52.328 96.28 52.328C93.3787 52.328 90.7333 52.9467 88.344 54.184C85.9547 55.4213 84.0347 57.2133 82.584 59.56C81.176 61.9067 80.472 64.808 80.472 68.264C80.472 71.6773 81.176 74.5787 82.584 76.968C84.0347 79.3147 85.9547 81.1067 88.344 82.344C90.7333 83.5387 93.3787 84.136 96.28 84.136C98.5413 84.136 100.568 83.7733 102.36 83.048C104.195 82.3227 105.752 81.256 107.032 79.848C108.312 78.44 109.251 76.7547 109.848 74.792H115.672ZM150.616 85.544H147.992L168.408 47.464H174.552V89H168.408V57.128L169.752 57.448L152.536 89H146.072L128.856 57.512L130.2 57.192V89H124.056V47.464H130.2L150.616 85.544ZM224.297 74.792C223.913 77.9067 222.846 80.5733 221.097 82.792C219.39 85.0107 217.15 86.7173 214.377 87.912C211.604 89.1067 208.446 89.704 204.905 89.704C201.705 89.704 198.761 89.2133 196.073 88.232C193.428 87.2507 191.124 85.8427 189.161 84.008C187.198 82.1733 185.662 79.9333 184.553 77.288C183.444 74.6 182.889 71.592 182.889 68.264C182.889 64.8933 183.444 61.8853 184.553 59.24C185.662 56.5947 187.198 54.3547 189.161 52.52C191.124 50.6427 193.428 49.2133 196.073 48.232C198.761 47.2507 201.705 46.76 204.905 46.76C208.489 46.76 211.668 47.3787 214.441 48.616C217.214 49.8107 219.454 51.5387 221.161 53.8C222.91 56.0187 223.977 58.6853 224.361 61.8H218.473C217.918 59.7947 217.001 58.088 215.721 56.68C214.441 55.272 212.884 54.2053 211.049 53.48C209.214 52.712 207.166 52.328 204.905 52.328C202.004 52.328 199.358 52.9467 196.969 54.184C194.58 55.4213 192.66 57.2133 191.209 59.56C189.801 61.9067 189.097 64.808 189.097 68.264C189.097 71.6773 189.801 74.5787 191.209 76.968C192.66 79.3147 194.58 81.1067 196.969 82.344C199.358 83.5387 202.004 84.136 204.905 84.136C207.166 84.136 209.193 83.7733 210.985 83.048C212.82 82.3227 214.377 81.256 215.657 79.848C216.937 78.44 217.876 76.7547 218.473 74.792H224.297Z" fill="black"/>
<defs>
<clipPath id="clip0_3_174">
<rect width="86" height="70" fill="white" transform="translate(264 34)"/>
</clipPath>
<clipPath id="clip1_3_174">
<rect width="86" height="98" fill="white" transform="translate(521 17)"/>
</clipPath>
<clipPath id="clip2_3_174">
<rect width="86" height="118" fill="white" transform="translate(435 9)"/>
</clipPath>
<clipPath id="clip3_3_174">
<rect width="90" height="103" fill="white" transform="translate(343 9)"/>
</clipPath>
</defs>
</svg>
